<mxfile host="app.diagrams.net" modified="2021-05-17T07:27:24.042Z" agent="5.0 (Windows NT 10.0; Win64; x64) AppleWebKit/537.36 (KHTML, like Gecko) Chrome/90.0.4430.212 Safari/537.36" etag="c1oA6LlwWEP4rOvDsyDZ" version="14.6.10" type="github">
  <diagram id="cf5RIhE991yB4PEMj0bT" name="Page-1">
    <mxGraphModel dx="2334" dy="705" grid="1" gridSize="10" guides="1" tooltips="1" connect="1" arrows="1" fold="1" page="1" pageScale="1" pageWidth="827" pageHeight="1169" math="0" shadow="0">
      <root>
        <mxCell id="0" />
        <mxCell id="1" parent="0" />
        <mxCell id="4gOe-5K6kAmXfb3kJqOu-41" value="NHANVIEN" style="swimlane;fontStyle=0;childLayout=stackLayout;horizontal=1;startSize=26;horizontalStack=0;resizeParent=1;resizeParentMax=0;resizeLast=0;collapsible=1;marginBottom=0;align=center;fontSize=14;" vertex="1" parent="1">
          <mxGeometry x="150" y="870" width="160" height="260" as="geometry" />
        </mxCell>
        <mxCell id="4gOe-5K6kAmXfb3kJqOu-46" value="manv" style="text;strokeColor=none;fillColor=none;spacingLeft=4;spacingRight=4;overflow=hidden;rotatable=0;points=[[0,0.5],[1,0.5]];portConstraint=eastwest;fontSize=12;" vertex="1" parent="4gOe-5K6kAmXfb3kJqOu-41">
          <mxGeometry y="26" width="160" height="34" as="geometry" />
        </mxCell>
        <mxCell id="4gOe-5K6kAmXfb3kJqOu-42" value="hoten" style="text;strokeColor=none;fillColor=none;spacingLeft=4;spacingRight=4;overflow=hidden;rotatable=0;points=[[0,0.5],[1,0.5]];portConstraint=eastwest;fontSize=12;" vertex="1" parent="4gOe-5K6kAmXfb3kJqOu-41">
          <mxGeometry y="60" width="160" height="40" as="geometry" />
        </mxCell>
        <mxCell id="4gOe-5K6kAmXfb3kJqOu-43" value="diachi" style="text;strokeColor=none;fillColor=none;spacingLeft=4;spacingRight=4;overflow=hidden;rotatable=0;points=[[0,0.5],[1,0.5]];portConstraint=eastwest;fontSize=12;" vertex="1" parent="4gOe-5K6kAmXfb3kJqOu-41">
          <mxGeometry y="100" width="160" height="40" as="geometry" />
        </mxCell>
        <mxCell id="4gOe-5K6kAmXfb3kJqOu-48" value="dthoai" style="text;strokeColor=none;fillColor=none;spacingLeft=4;spacingRight=4;overflow=hidden;rotatable=0;points=[[0,0.5],[1,0.5]];portConstraint=eastwest;fontSize=12;" vertex="1" parent="4gOe-5K6kAmXfb3kJqOu-41">
          <mxGeometry y="140" width="160" height="40" as="geometry" />
        </mxCell>
        <mxCell id="4gOe-5K6kAmXfb3kJqOu-49" value="luong" style="text;strokeColor=none;fillColor=none;spacingLeft=4;spacingRight=4;overflow=hidden;rotatable=0;points=[[0,0.5],[1,0.5]];portConstraint=eastwest;fontSize=12;" vertex="1" parent="4gOe-5K6kAmXfb3kJqOu-41">
          <mxGeometry y="180" width="160" height="40" as="geometry" />
        </mxCell>
        <mxCell id="4gOe-5K6kAmXfb3kJqOu-44" value="loainv" style="text;strokeColor=none;fillColor=none;spacingLeft=4;spacingRight=4;overflow=hidden;rotatable=0;points=[[0,0.5],[1,0.5]];portConstraint=eastwest;fontSize=12;" vertex="1" parent="4gOe-5K6kAmXfb3kJqOu-41">
          <mxGeometry y="220" width="160" height="40" as="geometry" />
        </mxCell>
        <mxCell id="4gOe-5K6kAmXfb3kJqOu-50" value="LOAIMB" style="swimlane;fontStyle=0;childLayout=stackLayout;horizontal=1;startSize=26;horizontalStack=0;resizeParent=1;resizeParentMax=0;resizeLast=0;collapsible=1;marginBottom=0;align=center;fontSize=14;" vertex="1" parent="1">
          <mxGeometry x="630" y="610" width="160" height="180" as="geometry" />
        </mxCell>
        <mxCell id="4gOe-5K6kAmXfb3kJqOu-51" value="maloai" style="text;strokeColor=none;fillColor=none;spacingLeft=4;spacingRight=4;overflow=hidden;rotatable=0;points=[[0,0.5],[1,0.5]];portConstraint=eastwest;fontSize=12;" vertex="1" parent="4gOe-5K6kAmXfb3kJqOu-50">
          <mxGeometry y="26" width="160" height="34" as="geometry" />
        </mxCell>
        <mxCell id="4gOe-5K6kAmXfb3kJqOu-52" value="hangsx" style="text;strokeColor=none;fillColor=none;spacingLeft=4;spacingRight=4;overflow=hidden;rotatable=0;points=[[0,0.5],[1,0.5]];portConstraint=eastwest;fontSize=12;" vertex="1" parent="4gOe-5K6kAmXfb3kJqOu-50">
          <mxGeometry y="60" width="160" height="40" as="geometry" />
        </mxCell>
        <mxCell id="4gOe-5K6kAmXfb3kJqOu-53" value="tluong" style="text;strokeColor=none;fillColor=none;spacingLeft=4;spacingRight=4;overflow=hidden;rotatable=0;points=[[0,0.5],[1,0.5]];portConstraint=eastwest;fontSize=12;" vertex="1" parent="4gOe-5K6kAmXfb3kJqOu-50">
          <mxGeometry y="100" width="160" height="40" as="geometry" />
        </mxCell>
        <mxCell id="4gOe-5K6kAmXfb3kJqOu-54" value="succhua" style="text;strokeColor=none;fillColor=none;spacingLeft=4;spacingRight=4;overflow=hidden;rotatable=0;points=[[0,0.5],[1,0.5]];portConstraint=eastwest;fontSize=12;" vertex="1" parent="4gOe-5K6kAmXfb3kJqOu-50">
          <mxGeometry y="140" width="160" height="40" as="geometry" />
        </mxCell>
        <mxCell id="4gOe-5K6kAmXfb3kJqOu-57" value="MAYBAY" style="swimlane;fontStyle=0;childLayout=stackLayout;horizontal=1;startSize=26;horizontalStack=0;resizeParent=1;resizeParentMax=0;resizeLast=0;collapsible=1;marginBottom=0;align=center;fontSize=14;" vertex="1" parent="1">
          <mxGeometry x="370" y="720" width="160" height="100" as="geometry" />
        </mxCell>
        <mxCell id="4gOe-5K6kAmXfb3kJqOu-58" value="sohieu" style="text;strokeColor=none;fillColor=none;spacingLeft=4;spacingRight=4;overflow=hidden;rotatable=0;points=[[0,0.5],[1,0.5]];portConstraint=eastwest;fontSize=12;" vertex="1" parent="4gOe-5K6kAmXfb3kJqOu-57">
          <mxGeometry y="26" width="160" height="34" as="geometry" />
        </mxCell>
        <mxCell id="4gOe-5K6kAmXfb3kJqOu-59" value="maloai" style="text;strokeColor=none;fillColor=none;spacingLeft=4;spacingRight=4;overflow=hidden;rotatable=0;points=[[0,0.5],[1,0.5]];portConstraint=eastwest;fontSize=12;" vertex="1" parent="4gOe-5K6kAmXfb3kJqOu-57">
          <mxGeometry y="60" width="160" height="40" as="geometry" />
        </mxCell>
        <mxCell id="4gOe-5K6kAmXfb3kJqOu-62" value="KHANANG" style="swimlane;fontStyle=0;childLayout=stackLayout;horizontal=1;startSize=26;horizontalStack=0;resizeParent=1;resizeParentMax=0;resizeLast=0;collapsible=1;marginBottom=0;align=center;fontSize=14;" vertex="1" parent="1">
          <mxGeometry x="370" y="550" width="160" height="106" as="geometry" />
        </mxCell>
        <mxCell id="4gOe-5K6kAmXfb3kJqOu-64" value="manv" style="text;strokeColor=none;fillColor=none;spacingLeft=4;spacingRight=4;overflow=hidden;rotatable=0;points=[[0,0.5],[1,0.5]];portConstraint=eastwest;fontSize=12;" vertex="1" parent="4gOe-5K6kAmXfb3kJqOu-62">
          <mxGeometry y="26" width="160" height="40" as="geometry" />
        </mxCell>
        <mxCell id="4gOe-5K6kAmXfb3kJqOu-65" value="maloai" style="text;strokeColor=none;fillColor=none;spacingLeft=4;spacingRight=4;overflow=hidden;rotatable=0;points=[[0,0.5],[1,0.5]];portConstraint=eastwest;fontSize=12;" vertex="1" parent="4gOe-5K6kAmXfb3kJqOu-62">
          <mxGeometry y="66" width="160" height="40" as="geometry" />
        </mxCell>
        <mxCell id="4gOe-5K6kAmXfb3kJqOu-66" value="CHUYENBAY" style="swimlane;fontStyle=0;childLayout=stackLayout;horizontal=1;startSize=26;horizontalStack=0;resizeParent=1;resizeParentMax=0;resizeLast=0;collapsible=1;marginBottom=0;align=center;fontSize=14;" vertex="1" parent="1">
          <mxGeometry x="-30" y="500" width="160" height="300" as="geometry" />
        </mxCell>
        <mxCell id="4gOe-5K6kAmXfb3kJqOu-67" value="macb" style="text;strokeColor=none;fillColor=none;spacingLeft=4;spacingRight=4;overflow=hidden;rotatable=0;points=[[0,0.5],[1,0.5]];portConstraint=eastwest;fontSize=12;" vertex="1" parent="4gOe-5K6kAmXfb3kJqOu-66">
          <mxGeometry y="26" width="160" height="34" as="geometry" />
        </mxCell>
        <mxCell id="4gOe-5K6kAmXfb3kJqOu-68" value="ngaydi" style="text;strokeColor=none;fillColor=none;spacingLeft=4;spacingRight=4;overflow=hidden;rotatable=0;points=[[0,0.5],[1,0.5]];portConstraint=eastwest;fontSize=12;" vertex="1" parent="4gOe-5K6kAmXfb3kJqOu-66">
          <mxGeometry y="60" width="160" height="40" as="geometry" />
        </mxCell>
        <mxCell id="4gOe-5K6kAmXfb3kJqOu-69" value="sohieu" style="text;strokeColor=none;fillColor=none;spacingLeft=4;spacingRight=4;overflow=hidden;rotatable=0;points=[[0,0.5],[1,0.5]];portConstraint=eastwest;fontSize=12;" vertex="1" parent="4gOe-5K6kAmXfb3kJqOu-66">
          <mxGeometry y="100" width="160" height="40" as="geometry" />
        </mxCell>
        <mxCell id="4gOe-5K6kAmXfb3kJqOu-70" value="sbdi" style="text;strokeColor=none;fillColor=none;spacingLeft=4;spacingRight=4;overflow=hidden;rotatable=0;points=[[0,0.5],[1,0.5]];portConstraint=eastwest;fontSize=12;" vertex="1" parent="4gOe-5K6kAmXfb3kJqOu-66">
          <mxGeometry y="140" width="160" height="40" as="geometry" />
        </mxCell>
        <mxCell id="4gOe-5K6kAmXfb3kJqOu-71" value="sbden" style="text;strokeColor=none;fillColor=none;spacingLeft=4;spacingRight=4;overflow=hidden;rotatable=0;points=[[0,0.5],[1,0.5]];portConstraint=eastwest;fontSize=12;" vertex="1" parent="4gOe-5K6kAmXfb3kJqOu-66">
          <mxGeometry y="180" width="160" height="40" as="geometry" />
        </mxCell>
        <mxCell id="4gOe-5K6kAmXfb3kJqOu-72" value="giodi" style="text;strokeColor=none;fillColor=none;spacingLeft=4;spacingRight=4;overflow=hidden;rotatable=0;points=[[0,0.5],[1,0.5]];portConstraint=eastwest;fontSize=12;" vertex="1" parent="4gOe-5K6kAmXfb3kJqOu-66">
          <mxGeometry y="220" width="160" height="40" as="geometry" />
        </mxCell>
        <mxCell id="4gOe-5K6kAmXfb3kJqOu-73" value="gioden&#xa;" style="text;strokeColor=none;fillColor=none;spacingLeft=4;spacingRight=4;overflow=hidden;rotatable=0;points=[[0,0.5],[1,0.5]];portConstraint=eastwest;fontSize=12;" vertex="1" parent="4gOe-5K6kAmXfb3kJqOu-66">
          <mxGeometry y="260" width="160" height="40" as="geometry" />
        </mxCell>
        <mxCell id="4gOe-5K6kAmXfb3kJqOu-74" value="PHANCONG" style="swimlane;fontStyle=0;childLayout=stackLayout;horizontal=1;startSize=26;horizontalStack=0;resizeParent=1;resizeParentMax=0;resizeLast=0;collapsible=1;marginBottom=0;align=center;fontSize=14;" vertex="1" parent="1">
          <mxGeometry x="-140" y="950" width="160" height="140" as="geometry" />
        </mxCell>
        <mxCell id="4gOe-5K6kAmXfb3kJqOu-75" value="manv" style="text;strokeColor=none;fillColor=none;spacingLeft=4;spacingRight=4;overflow=hidden;rotatable=0;points=[[0,0.5],[1,0.5]];portConstraint=eastwest;fontSize=12;" vertex="1" parent="4gOe-5K6kAmXfb3kJqOu-74">
          <mxGeometry y="26" width="160" height="34" as="geometry" />
        </mxCell>
        <mxCell id="4gOe-5K6kAmXfb3kJqOu-76" value="ngaydi" style="text;strokeColor=none;fillColor=none;spacingLeft=4;spacingRight=4;overflow=hidden;rotatable=0;points=[[0,0.5],[1,0.5]];portConstraint=eastwest;fontSize=12;" vertex="1" parent="4gOe-5K6kAmXfb3kJqOu-74">
          <mxGeometry y="60" width="160" height="40" as="geometry" />
        </mxCell>
        <mxCell id="4gOe-5K6kAmXfb3kJqOu-77" value="macb" style="text;strokeColor=none;fillColor=none;spacingLeft=4;spacingRight=4;overflow=hidden;rotatable=0;points=[[0,0.5],[1,0.5]];portConstraint=eastwest;fontSize=12;" vertex="1" parent="4gOe-5K6kAmXfb3kJqOu-74">
          <mxGeometry y="100" width="160" height="40" as="geometry" />
        </mxCell>
        <mxCell id="4gOe-5K6kAmXfb3kJqOu-79" style="edgeStyle=orthogonalEdgeStyle;rounded=0;orthogonalLoop=1;jettySize=auto;html=1;entryX=0;entryY=0.5;entryDx=0;entryDy=0;" edge="1" parent="1" source="4gOe-5K6kAmXfb3kJqOu-69" target="4gOe-5K6kAmXfb3kJqOu-58">
          <mxGeometry relative="1" as="geometry" />
        </mxCell>
        <mxCell id="4gOe-5K6kAmXfb3kJqOu-80" style="edgeStyle=orthogonalEdgeStyle;rounded=0;orthogonalLoop=1;jettySize=auto;html=1;entryX=0;entryY=0.5;entryDx=0;entryDy=0;" edge="1" parent="1" source="4gOe-5K6kAmXfb3kJqOu-75" target="4gOe-5K6kAmXfb3kJqOu-46">
          <mxGeometry relative="1" as="geometry" />
        </mxCell>
        <mxCell id="4gOe-5K6kAmXfb3kJqOu-81" style="edgeStyle=orthogonalEdgeStyle;rounded=0;orthogonalLoop=1;jettySize=auto;html=1;entryX=0;entryY=0.5;entryDx=0;entryDy=0;" edge="1" parent="1" source="4gOe-5K6kAmXfb3kJqOu-77" target="4gOe-5K6kAmXfb3kJqOu-67">
          <mxGeometry relative="1" as="geometry">
            <Array as="points">
              <mxPoint x="-180" y="1070" />
              <mxPoint x="-180" y="543" />
            </Array>
          </mxGeometry>
        </mxCell>
        <mxCell id="4gOe-5K6kAmXfb3kJqOu-82" style="edgeStyle=orthogonalEdgeStyle;rounded=0;orthogonalLoop=1;jettySize=auto;html=1;entryX=0;entryY=0.5;entryDx=0;entryDy=0;" edge="1" parent="1" source="4gOe-5K6kAmXfb3kJqOu-65" target="4gOe-5K6kAmXfb3kJqOu-51">
          <mxGeometry relative="1" as="geometry" />
        </mxCell>
        <mxCell id="4gOe-5K6kAmXfb3kJqOu-84" style="edgeStyle=orthogonalEdgeStyle;rounded=0;orthogonalLoop=1;jettySize=auto;html=1;entryX=0;entryY=0.5;entryDx=0;entryDy=0;" edge="1" parent="1" source="4gOe-5K6kAmXfb3kJqOu-59" target="4gOe-5K6kAmXfb3kJqOu-51">
          <mxGeometry relative="1" as="geometry" />
        </mxCell>
        <mxCell id="4gOe-5K6kAmXfb3kJqOu-85" style="edgeStyle=orthogonalEdgeStyle;rounded=0;orthogonalLoop=1;jettySize=auto;html=1;entryX=1;entryY=0.5;entryDx=0;entryDy=0;" edge="1" parent="1" source="4gOe-5K6kAmXfb3kJqOu-64" target="4gOe-5K6kAmXfb3kJqOu-46">
          <mxGeometry relative="1" as="geometry" />
        </mxCell>
      </root>
    </mxGraphModel>
  </diagram>
</mxfile>
